<mxfile host="app.diagrams.net" modified="2024-06-18T02:14:41.115Z" agent="Mozilla/5.0 (Windows NT 10.0; Win64; x64) AppleWebKit/537.36 (KHTML, like Gecko) Chrome/125.0.0.0 Safari/537.36" etag="Syvlyx2BUYnG4E9j3bKB" version="24.5.5" type="github">
  <diagram id="C5RBs43oDa-KdzZeNtuy" name="Page-1">
    <mxGraphModel dx="1120" dy="1637" grid="1" gridSize="10" guides="1" tooltips="1" connect="1" arrows="1" fold="1" page="1" pageScale="1" pageWidth="827" pageHeight="1169" math="0" shadow="0">
      <root>
        <mxCell id="WIyWlLk6GJQsqaUBKTNV-0" />
        <mxCell id="WIyWlLk6GJQsqaUBKTNV-1" parent="WIyWlLk6GJQsqaUBKTNV-0" />
        <mxCell id="eIweZU6qrvWe7ARknYtb-1" value="&lt;p&gt;&lt;font style=&quot;font-size: 18px;&quot; face=&quot;Times New Roman&quot;&gt;ConnectionFactory&lt;/font&gt;&lt;/p&gt;" style="rounded=0;whiteSpace=wrap;html=1;" parent="WIyWlLk6GJQsqaUBKTNV-1" vertex="1">
          <mxGeometry x="350" y="-910" width="180" height="60" as="geometry" />
        </mxCell>
        <mxCell id="eIweZU6qrvWe7ARknYtb-2" value="&lt;font style=&quot;font-size: 14px;&quot; face=&quot;Times New Roman&quot;&gt;- getConnection()&lt;/font&gt;" style="swimlane;fontStyle=0;childLayout=stackLayout;horizontal=1;startSize=30;horizontalStack=0;resizeParent=1;resizeParentMax=0;resizeLast=0;collapsible=1;marginBottom=0;whiteSpace=wrap;html=1;" parent="WIyWlLk6GJQsqaUBKTNV-1" vertex="1">
          <mxGeometry x="350" y="-850" width="180" height="30" as="geometry">
            <mxRectangle x="160" y="350" width="50" height="40" as="alternateBounds" />
          </mxGeometry>
        </mxCell>
        <mxCell id="eIweZU6qrvWe7ARknYtb-11" value="&lt;p&gt;&lt;font face=&quot;Times New Roman&quot;&gt;&lt;span style=&quot;font-size: 18px;&quot;&gt;Nota&lt;/span&gt;&lt;/font&gt;&lt;/p&gt;" style="rounded=0;whiteSpace=wrap;html=1;" parent="WIyWlLk6GJQsqaUBKTNV-1" vertex="1">
          <mxGeometry x="530" y="-1117.5" width="180" height="60" as="geometry" />
        </mxCell>
        <mxCell id="eIweZU6qrvWe7ARknYtb-12" value="&lt;font face=&quot;Times New Roman&quot;&gt;&lt;span style=&quot;font-size: 14px;&quot;&gt;- valor : double&lt;/span&gt;&lt;/font&gt;" style="swimlane;fontStyle=0;childLayout=stackLayout;horizontal=1;startSize=30;horizontalStack=0;resizeParent=1;resizeParentMax=0;resizeLast=0;collapsible=1;marginBottom=0;whiteSpace=wrap;html=1;" parent="WIyWlLk6GJQsqaUBKTNV-1" vertex="1">
          <mxGeometry x="530" y="-1057.5" width="180" height="30" as="geometry">
            <mxRectangle x="160" y="350" width="50" height="40" as="alternateBounds" />
          </mxGeometry>
        </mxCell>
        <mxCell id="eIweZU6qrvWe7ARknYtb-28" value="&lt;font face=&quot;Times New Roman&quot;&gt;&lt;span style=&quot;font-size: 14px;&quot;&gt;- connectionFactory&lt;/span&gt;&lt;/font&gt;" style="swimlane;fontStyle=0;childLayout=stackLayout;horizontal=1;startSize=30;horizontalStack=0;resizeParent=1;resizeParentMax=0;resizeLast=0;collapsible=1;marginBottom=0;whiteSpace=wrap;html=1;" parent="WIyWlLk6GJQsqaUBKTNV-1" vertex="1">
          <mxGeometry x="151" y="-1070" width="180" height="30" as="geometry">
            <mxRectangle x="340" y="530" width="50" height="40" as="alternateBounds" />
          </mxGeometry>
        </mxCell>
        <mxCell id="eIweZU6qrvWe7ARknYtb-29" value="&lt;p&gt;&lt;font face=&quot;Times New Roman&quot;&gt;&lt;span style=&quot;font-size: 18px;&quot;&gt;NotaDAO&lt;/span&gt;&lt;/font&gt;&lt;/p&gt;" style="rounded=0;whiteSpace=wrap;html=1;" parent="WIyWlLk6GJQsqaUBKTNV-1" vertex="1">
          <mxGeometry x="150" y="-1130" width="180" height="60" as="geometry" />
        </mxCell>
        <mxCell id="eIweZU6qrvWe7ARknYtb-41" value="&lt;font style=&quot;font-size: 14px;&quot; face=&quot;Times New Roman&quot;&gt;+ adicionarNota(Nota)&lt;/font&gt;" style="swimlane;fontStyle=0;childLayout=stackLayout;horizontal=1;startSize=30;horizontalStack=0;resizeParent=1;resizeParentMax=0;resizeLast=0;collapsible=1;marginBottom=0;whiteSpace=wrap;html=1;" parent="WIyWlLk6GJQsqaUBKTNV-1" vertex="1" collapsed="1">
          <mxGeometry x="150" y="-1040" width="181" height="30" as="geometry">
            <mxRectangle x="250" y="620" width="140" height="30" as="alternateBounds" />
          </mxGeometry>
        </mxCell>
        <mxCell id="eIweZU6qrvWe7ARknYtb-51" value="&lt;font style=&quot;font-size: 14px;&quot; face=&quot;Times New Roman&quot;&gt;+ deletarNota(Nota)&lt;/font&gt;" style="swimlane;fontStyle=0;childLayout=stackLayout;horizontal=1;startSize=30;horizontalStack=0;resizeParent=1;resizeParentMax=0;resizeLast=0;collapsible=1;marginBottom=0;whiteSpace=wrap;html=1;" parent="WIyWlLk6GJQsqaUBKTNV-1" vertex="1" collapsed="1">
          <mxGeometry x="150" y="-1010" width="181" height="30" as="geometry">
            <mxRectangle x="250" y="620" width="140" height="30" as="alternateBounds" />
          </mxGeometry>
        </mxCell>
        <mxCell id="eIweZU6qrvWe7ARknYtb-52" value="&lt;font style=&quot;font-size: 14px;&quot; face=&quot;Times New Roman&quot;&gt;+ calcularMedia()&lt;/font&gt;" style="swimlane;fontStyle=0;childLayout=stackLayout;horizontal=1;startSize=30;horizontalStack=0;resizeParent=1;resizeParentMax=0;resizeLast=0;collapsible=1;marginBottom=0;whiteSpace=wrap;html=1;" parent="WIyWlLk6GJQsqaUBKTNV-1" vertex="1" collapsed="1">
          <mxGeometry x="150" y="-980" width="181" height="30" as="geometry">
            <mxRectangle x="250" y="620" width="140" height="30" as="alternateBounds" />
          </mxGeometry>
        </mxCell>
        <mxCell id="TFI0TmcM6APz9hGAGwX5-0" value="&lt;p&gt;&lt;font style=&quot;font-size: 18px;&quot; face=&quot;Times New Roman&quot;&gt;FormatacaoNumeros&lt;/font&gt;&lt;/p&gt;" style="rounded=0;whiteSpace=wrap;html=1;" vertex="1" parent="WIyWlLk6GJQsqaUBKTNV-1">
          <mxGeometry x="120" y="-780" width="180" height="60" as="geometry" />
        </mxCell>
        <mxCell id="TFI0TmcM6APz9hGAGwX5-1" value="&lt;font face=&quot;Times New Roman&quot; style=&quot;font-size: 13px;&quot;&gt;+ formatarNumero(double): String&lt;/font&gt;" style="swimlane;fontStyle=0;childLayout=stackLayout;horizontal=1;startSize=30;horizontalStack=0;resizeParent=1;resizeParentMax=0;resizeLast=0;collapsible=1;marginBottom=0;whiteSpace=wrap;html=1;" vertex="1" collapsed="1" parent="WIyWlLk6GJQsqaUBKTNV-1">
          <mxGeometry x="120" y="-720" width="180" height="30" as="geometry">
            <mxRectangle x="-20" y="-810" width="180" height="30" as="alternateBounds" />
          </mxGeometry>
        </mxCell>
        <mxCell id="TFI0TmcM6APz9hGAGwX5-2" value="&lt;p&gt;&lt;font style=&quot;font-size: 18px;&quot; face=&quot;Times New Roman&quot;&gt;ImportarNotas&lt;/font&gt;&lt;/p&gt;" style="rounded=0;whiteSpace=wrap;html=1;" vertex="1" parent="WIyWlLk6GJQsqaUBKTNV-1">
          <mxGeometry x="560" y="-780" width="180" height="60" as="geometry" />
        </mxCell>
        <mxCell id="TFI0TmcM6APz9hGAGwX5-3" value="&lt;font face=&quot;Times New Roman&quot; style=&quot;font-size: 14px;&quot;&gt;+ importar(String): Notas&lt;/font&gt;" style="swimlane;fontStyle=0;childLayout=stackLayout;horizontal=1;startSize=30;horizontalStack=0;resizeParent=1;resizeParentMax=0;resizeLast=0;collapsible=1;marginBottom=0;whiteSpace=wrap;html=1;" vertex="1" collapsed="1" parent="WIyWlLk6GJQsqaUBKTNV-1">
          <mxGeometry x="560" y="-720" width="180" height="30" as="geometry">
            <mxRectangle x="-20" y="-810" width="180" height="30" as="alternateBounds" />
          </mxGeometry>
        </mxCell>
        <mxCell id="TFI0TmcM6APz9hGAGwX5-4" value="&lt;p&gt;&lt;font style=&quot;font-size: 18px;&quot; face=&quot;Times New Roman&quot;&gt;InterfaceCalculadora&lt;/font&gt;&lt;/p&gt;" style="rounded=0;whiteSpace=wrap;html=1;" vertex="1" parent="WIyWlLk6GJQsqaUBKTNV-1">
          <mxGeometry x="120" y="-590" width="180" height="60" as="geometry" />
        </mxCell>
        <mxCell id="TFI0TmcM6APz9hGAGwX5-5" value="&lt;font style=&quot;font-size: 14px;&quot; face=&quot;Times New Roman&quot;&gt;&amp;nbsp; + calcularMedia(): double&lt;/font&gt;" style="swimlane;fontStyle=0;childLayout=stackLayout;horizontal=1;startSize=30;horizontalStack=0;resizeParent=1;resizeParentMax=0;resizeLast=0;collapsible=1;marginBottom=0;whiteSpace=wrap;html=1;" vertex="1" collapsed="1" parent="WIyWlLk6GJQsqaUBKTNV-1">
          <mxGeometry x="120" y="-530" width="180" height="30" as="geometry">
            <mxRectangle x="-20" y="-810" width="180" height="30" as="alternateBounds" />
          </mxGeometry>
        </mxCell>
        <mxCell id="TFI0TmcM6APz9hGAGwX5-6" value="&lt;p&gt;&lt;font style=&quot;font-size: 18px;&quot; face=&quot;Times New Roman&quot;&gt;InterfaceLogin&lt;/font&gt;&lt;/p&gt;" style="rounded=0;whiteSpace=wrap;html=1;" vertex="1" parent="WIyWlLk6GJQsqaUBKTNV-1">
          <mxGeometry x="560" y="-584" width="180" height="60" as="geometry" />
        </mxCell>
        <mxCell id="TFI0TmcM6APz9hGAGwX5-7" value="&lt;font style=&quot;font-size: 12px;&quot; face=&quot;Times New Roman&quot;&gt;&amp;nbsp; &amp;nbsp;+ realizarLogin(String, String): boolean&lt;/font&gt;" style="swimlane;fontStyle=0;childLayout=stackLayout;horizontal=1;startSize=30;horizontalStack=0;resizeParent=1;resizeParentMax=0;resizeLast=0;collapsible=1;marginBottom=0;whiteSpace=wrap;html=1;" vertex="1" collapsed="1" parent="WIyWlLk6GJQsqaUBKTNV-1">
          <mxGeometry x="560" y="-524" width="180" height="30" as="geometry">
            <mxRectangle x="-20" y="-810" width="180" height="30" as="alternateBounds" />
          </mxGeometry>
        </mxCell>
        <mxCell id="TFI0TmcM6APz9hGAGwX5-8" value="" style="endArrow=classic;html=1;rounded=0;entryX=0;entryY=0.5;entryDx=0;entryDy=0;exitX=0.5;exitY=1;exitDx=0;exitDy=0;" edge="1" parent="WIyWlLk6GJQsqaUBKTNV-1" source="eIweZU6qrvWe7ARknYtb-52" target="eIweZU6qrvWe7ARknYtb-1">
          <mxGeometry width="50" height="50" relative="1" as="geometry">
            <mxPoint x="140" y="-870" as="sourcePoint" />
            <mxPoint x="190" y="-920" as="targetPoint" />
            <Array as="points">
              <mxPoint x="240" y="-880" />
            </Array>
          </mxGeometry>
        </mxCell>
        <mxCell id="TFI0TmcM6APz9hGAGwX5-9" value="" style="endArrow=classic;html=1;rounded=0;entryX=1;entryY=0.75;entryDx=0;entryDy=0;exitX=0;exitY=0.5;exitDx=0;exitDy=0;" edge="1" parent="WIyWlLk6GJQsqaUBKTNV-1" source="eIweZU6qrvWe7ARknYtb-11" target="eIweZU6qrvWe7ARknYtb-29">
          <mxGeometry width="50" height="50" relative="1" as="geometry">
            <mxPoint x="390" y="-870" as="sourcePoint" />
            <mxPoint x="370" y="-1060" as="targetPoint" />
          </mxGeometry>
        </mxCell>
        <mxCell id="TFI0TmcM6APz9hGAGwX5-14" value="" style="endArrow=classic;html=1;rounded=0;entryX=0.5;entryY=0;entryDx=0;entryDy=0;exitX=0;exitY=0.25;exitDx=0;exitDy=0;" edge="1" parent="WIyWlLk6GJQsqaUBKTNV-1" source="eIweZU6qrvWe7ARknYtb-2" target="TFI0TmcM6APz9hGAGwX5-0">
          <mxGeometry width="50" height="50" relative="1" as="geometry">
            <mxPoint x="380" y="-800" as="sourcePoint" />
            <mxPoint x="430" y="-850" as="targetPoint" />
            <Array as="points">
              <mxPoint x="210" y="-842" />
            </Array>
          </mxGeometry>
        </mxCell>
        <mxCell id="TFI0TmcM6APz9hGAGwX5-15" value="" style="endArrow=classic;html=1;rounded=0;entryX=0.5;entryY=0;entryDx=0;entryDy=0;exitX=1;exitY=0.25;exitDx=0;exitDy=0;" edge="1" parent="WIyWlLk6GJQsqaUBKTNV-1" source="eIweZU6qrvWe7ARknYtb-2" target="TFI0TmcM6APz9hGAGwX5-2">
          <mxGeometry width="50" height="50" relative="1" as="geometry">
            <mxPoint x="380" y="-800" as="sourcePoint" />
            <mxPoint x="430" y="-850" as="targetPoint" />
            <Array as="points">
              <mxPoint x="650" y="-842" />
            </Array>
          </mxGeometry>
        </mxCell>
        <mxCell id="TFI0TmcM6APz9hGAGwX5-16" value="" style="endArrow=classic;html=1;rounded=0;exitX=0.5;exitY=1;exitDx=0;exitDy=0;entryX=0.5;entryY=0;entryDx=0;entryDy=0;" edge="1" parent="WIyWlLk6GJQsqaUBKTNV-1" source="TFI0TmcM6APz9hGAGwX5-1" target="TFI0TmcM6APz9hGAGwX5-4">
          <mxGeometry width="50" height="50" relative="1" as="geometry">
            <mxPoint x="380" y="-590" as="sourcePoint" />
            <mxPoint x="430" y="-640" as="targetPoint" />
          </mxGeometry>
        </mxCell>
        <mxCell id="TFI0TmcM6APz9hGAGwX5-17" value="" style="endArrow=classic;html=1;rounded=0;entryX=0.5;entryY=0;entryDx=0;entryDy=0;exitX=0.5;exitY=1;exitDx=0;exitDy=0;" edge="1" parent="WIyWlLk6GJQsqaUBKTNV-1" source="TFI0TmcM6APz9hGAGwX5-3" target="TFI0TmcM6APz9hGAGwX5-6">
          <mxGeometry width="50" height="50" relative="1" as="geometry">
            <mxPoint x="380" y="-590" as="sourcePoint" />
            <mxPoint x="430" y="-640" as="targetPoint" />
          </mxGeometry>
        </mxCell>
        <mxCell id="TFI0TmcM6APz9hGAGwX5-18" value="&lt;p&gt;&lt;font style=&quot;font-size: 18px;&quot; face=&quot;Times New Roman&quot;&gt;App&lt;/font&gt;&lt;/p&gt;" style="rounded=0;whiteSpace=wrap;html=1;" vertex="1" parent="WIyWlLk6GJQsqaUBKTNV-1">
          <mxGeometry x="350" y="-420" width="180" height="60" as="geometry" />
        </mxCell>
        <mxCell id="TFI0TmcM6APz9hGAGwX5-19" value="&lt;font style=&quot;font-size: 15px;&quot; face=&quot;Times New Roman&quot;&gt;+ main(String[] args)&lt;/font&gt;" style="swimlane;fontStyle=0;childLayout=stackLayout;horizontal=1;startSize=30;horizontalStack=0;resizeParent=1;resizeParentMax=0;resizeLast=0;collapsible=1;marginBottom=0;whiteSpace=wrap;html=1;" vertex="1" collapsed="1" parent="WIyWlLk6GJQsqaUBKTNV-1">
          <mxGeometry x="350" y="-360" width="180" height="30" as="geometry">
            <mxRectangle x="-20" y="-810" width="180" height="30" as="alternateBounds" />
          </mxGeometry>
        </mxCell>
        <mxCell id="TFI0TmcM6APz9hGAGwX5-20" value="" style="endArrow=classic;html=1;rounded=0;exitX=0.5;exitY=1;exitDx=0;exitDy=0;entryX=0.25;entryY=0;entryDx=0;entryDy=0;" edge="1" parent="WIyWlLk6GJQsqaUBKTNV-1" source="TFI0TmcM6APz9hGAGwX5-5" target="TFI0TmcM6APz9hGAGwX5-18">
          <mxGeometry width="50" height="50" relative="1" as="geometry">
            <mxPoint x="380" y="-370" as="sourcePoint" />
            <mxPoint x="430" y="-440" as="targetPoint" />
            <Array as="points">
              <mxPoint x="210" y="-440" />
              <mxPoint x="395" y="-440" />
            </Array>
          </mxGeometry>
        </mxCell>
        <mxCell id="TFI0TmcM6APz9hGAGwX5-21" value="" style="endArrow=classic;html=1;rounded=0;entryX=0.75;entryY=0;entryDx=0;entryDy=0;exitX=0.5;exitY=1;exitDx=0;exitDy=0;" edge="1" parent="WIyWlLk6GJQsqaUBKTNV-1" source="TFI0TmcM6APz9hGAGwX5-7" target="TFI0TmcM6APz9hGAGwX5-18">
          <mxGeometry width="50" height="50" relative="1" as="geometry">
            <mxPoint x="380" y="-370" as="sourcePoint" />
            <mxPoint x="430" y="-420" as="targetPoint" />
            <Array as="points">
              <mxPoint x="650" y="-440" />
              <mxPoint x="485" y="-440" />
            </Array>
          </mxGeometry>
        </mxCell>
      </root>
    </mxGraphModel>
  </diagram>
</mxfile>
